<?xml version="1.0" encoding="UTF-8"?>
<svg width="421px" height="99px" viewBox="0 0 421 99" version="1.1" xmlns="http://www.w3.org/2000/svg" xmlns:xlink="http://www.w3.org/1999/xlink">
    <!-- Generator: Sketch 48.2 (47327) - http://www.bohemiancoding.com/sketch -->
    <title>Group Copy 2</title>
    <desc>Created with Sketch.</desc>
    <defs>
        <linearGradient x1="0%" y1="32.8610271%" x2="100%" y2="32.861026%" id="linearGradient-1">
            <stop stop-color="#F19800" offset="0%"></stop>
            <stop stop-color="#D97404" offset="100%"></stop>
        </linearGradient>
    </defs>
    <g id="Page-1" stroke="none" stroke-width="1" fill="none" fill-rule="evenodd">
        <g id="Group-Copy-2" transform="translate(0.000000, -33.000000)">
            <path d="M177.510371,54.2312657 L243.187424,54.3043213 C240.69015,60.9363677 239.628195,65.6754577 240.001561,68.5215913 C240.625496,73.2777921 255.27694,79.0244626 255.280451,82.2320689 C255.283806,85.2965603 242.147006,88.4327791 241.591316,96.7075831 C241.469876,98.515956 241.865846,103.215611 242.779228,110.806547 L242.779227,110.806547 C243.966829,120.67648 236.92841,129.640383 227.058477,130.827985 C226.505357,130.894539 225.949445,130.935378 225.392537,130.950371 C218.905077,131.125021 213.685713,131.207773 209.734446,131.198628 C205.875745,131.189698 200.752418,131.142119 194.364462,131.055891 L194.364462,131.055891 C184.424242,130.921713 176.474875,122.7548 176.609053,112.81458 C176.620437,111.971218 176.691084,111.129699 176.820471,110.296244 C178.134943,101.82902 178.795567,96.7862242 178.802344,95.1678553 C178.836888,86.9186223 164.961508,85.1066081 164.961508,81.8222793 C164.961508,77.9707389 178.950338,74.7348315 178.878576,68.9305443 C178.845556,66.2598 178.389488,61.3600404 177.510371,54.2312657 Z" id="Rectangle" fill="url(#linearGradient-1)"></path>
            <path d="M240.924983,51.5984958 C232.497739,49.8762142 222.359683,49.0100742 210.510816,49.000076 C198.661949,48.9900778 188.825011,49.9663508 181,51.9288951 L182.774522,61.3141349 L240.127123,61.0350641 L240.924983,51.5984958 Z" id="Path" fill="#F9D79D"></path>
            <circle id="Oval" fill="#E28B1D" cx="222.5" cy="97.5" r="2.5"></circle>
            <circle id="Oval" fill="#E28B1D" cx="223" cy="112" r="4"></circle>
            <circle id="Oval" fill="#E28B1D" cx="230.5" cy="104.5" r="3.5"></circle>
            <path d="M193.7,44 C190.36665,44 187.916674,44.4499955 186.35,45.35 C184.783325,46.2500045 184.133332,47.899988 184.4,50.3 L185.9,65.1 C185.966667,65.700003 186,66.533328 186,67.6 C186,72.000022 184.650014,75.3166555 181.95,77.55 C179.249987,79.7833445 175.400025,81.266663 170.4,82 C175.666693,82.800004 179.599987,84.266656 182.2,86.4 C184.800013,88.533344 186.1,91.799978 186.1,96.2 C186.1,96.666669 186.033334,97.56666 185.9,98.9 L184.4,113.7 C184.133332,116.033345 184.799992,117.666662 186.4,118.6 C188.000008,119.533338 190.433317,120 193.7,120 L193.7,131 C185.166624,131 179.016685,129.833345 175.25,127.5 C171.483315,125.166655 169.6,121.266694 169.6,115.8 C169.6,115.13333 169.666666,114.066674 169.8,112.6 L171.3,98.2 L171.4,96.9 C171.4,93.833318 170.183346,91.6500065 167.75,90.35 C165.316654,89.0499935 161.900022,88.4 157.5,88.4 L157.5,75.6 C166.766713,75.6 171.4,72.766695 171.4,67.1 L171.3,65.8 L169.8,51.5 C169.666666,49.899992 169.6,48.76667 169.6,48.1 C169.6,42.633306 171.499981,38.7500115 175.3,36.45 C179.100019,34.1499885 185.233291,33 193.7,33 L193.7,44 Z" id="{" fill="#343642"></path>
            <path d="M261.2,44 C257.86665,44 255.416674,44.4499955 253.85,45.35 C252.283325,46.2500045 251.633332,47.899988 251.9,50.3 L253.4,65.1 C253.466667,65.700003 253.5,66.533328 253.5,67.6 C253.5,72.000022 252.150014,75.3166555 249.45,77.55 C246.749987,79.7833445 242.900025,81.266663 237.9,82 C243.166693,82.800004 247.099987,84.266656 249.7,86.4 C252.300013,88.533344 253.6,91.799978 253.6,96.2 C253.6,96.666669 253.533334,97.56666 253.4,98.9 L251.9,113.7 C251.633332,116.033345 252.299992,117.666662 253.9,118.6 C255.500008,119.533338 257.933317,120 261.2,120 L261.2,131 C252.666624,131 246.516685,129.833345 242.75,127.5 C238.983315,125.166655 237.1,121.266694 237.1,115.8 C237.1,115.13333 237.166666,114.066674 237.3,112.6 L238.8,98.2 L238.9,96.9 C238.9,93.833318 237.683346,91.6500065 235.25,90.35 C232.816654,89.0499935 229.400022,88.4 225,88.4 L225,75.6 C234.266713,75.6 238.9,72.766695 238.9,67.1 L238.8,65.8 L237.3,51.5 C237.166666,49.899992 237.1,48.76667 237.1,48.1 C237.1,42.633306 238.999981,38.7500115 242.8,36.45 C246.600019,34.1499885 252.733291,33 261.2,33 L261.2,44 Z" id="{" fill="#343642" transform="translate(243.100000, 82.000000) scale(-1, 1) translate(-243.100000, -82.000000) "></path>
            <path d="M12.42,61 C20.4,61 23.83,64.71 23.83,72.27 L23.83,74.02 C23.83,79.06 22.29,82.28 18.86,83.89 C22.99,85.5 24.6,89.21 24.6,94.39 L24.6,98.38 C24.6,105.94 20.61,110 12.91,110 L0.8,110 L0.8,61 L12.42,61 Z M11.93,87.95 L8.5,87.95 L8.5,103 L12.91,103 C15.5,103 16.9,101.81 16.9,98.17 L16.9,93.9 C16.9,89.35 15.43,87.95 11.93,87.95 Z M12.21,68 L8.5,68 L8.5,80.95 L11.51,80.95 C14.38,80.95 16.13,79.69 16.13,75.77 L16.13,73.04 C16.13,69.54 14.94,68 12.21,68 Z M42.5199999,68 L42.5199999,81.65 L53.0899999,81.65 L53.0899999,88.65 L42.5199999,88.65 L42.5199999,103 L55.8199999,103 L55.8199999,110 L34.8199999,110 L34.8199999,61 L55.8199999,61 L55.8199999,68 L42.5199999,68 Z M73.8799998,68 L73.8799998,81.65 L84.4499998,81.65 L84.4499998,88.65 L73.8799998,88.65 L73.8799998,103 L87.1799998,103 L87.1799998,110 L66.1799998,110 L66.1799998,61 L87.1799998,61 L87.1799998,68 L73.8799998,68 Z M121.48,110 L113.64,110 C113.22,108.74 112.94,107.97 112.94,103.98 L112.94,96.28 C112.94,91.73 111.4,90.05 107.9,90.05 L105.24,90.05 L105.24,110 L97.5399997,110 L97.5399997,61 L109.16,61 C117.14,61 120.57,64.71 120.57,72.27 L120.57,76.12 C120.57,81.16 118.96,84.45 115.53,86.06 C119.38,87.67 120.64,91.38 120.64,96.49 L120.64,104.05 C120.64,106.43 120.71,108.18 121.48,110 Z M108.95,68 L105.24,68 L105.24,83.05 L108.25,83.05 C111.12,83.05 112.87,81.79 112.87,77.87 L112.87,73.04 C112.87,69.54 111.68,68 108.95,68 Z" id="Beer" fill="#343642"></path>
            <path d="M309.35,89.7 L309.35,82.7 L320.13,82.7 L320.13,98.24 C320.13,106.08 316.21,110.56 308.65,110.56 C301.09,110.56 297.17,106.08 297.17,98.24 L297.17,72.76 C297.17,64.92 301.09,60.44 308.65,60.44 C316.21,60.44 320.13,64.92 320.13,72.76 L320.13,77.52 L312.85,77.52 L312.85,72.27 C312.85,68.77 311.31,67.44 308.86,67.44 C306.41,67.44 304.87,68.77 304.87,72.27 L304.87,98.73 C304.87,102.23 306.41,103.49 308.86,103.49 C311.31,103.49 312.85,102.23 312.85,98.73 L312.85,89.7 L309.35,89.7 Z M330.35,61 L338.05,61 L338.05,98.8 C338.05,102.3 339.59,103.56 342.04,103.56 C344.49,103.56 346.03,102.3 346.03,98.8 L346.03,61 L353.31,61 L353.31,98.31 C353.31,106.15 349.39,110.63 341.83,110.63 C334.27,110.63 330.35,106.15 330.35,98.31 L330.35,61 Z M388.1,110 L380.26,110 C379.84,108.74 379.56,107.97 379.56,103.98 L379.56,96.28 C379.56,91.73 378.02,90.05 374.52,90.05 L371.86,90.05 L371.86,110 L364.16,110 L364.16,61 L375.78,61 C383.76,61 387.19,64.71 387.19,72.27 L387.19,76.12 C387.19,81.16 385.58,84.45 382.15,86.06 C386,87.67 387.26,91.38 387.26,96.49 L387.26,104.05 C387.26,106.43 387.33,108.18 388.1,110 Z M375.57,68 L371.86,68 L371.86,83.05 L374.87,83.05 C377.74,83.05 379.49,81.79 379.49,77.87 L379.49,73.04 C379.49,69.54 378.3,68 375.57,68 Z M397.55,61 L405.25,61 L405.25,98.8 C405.25,102.3 406.79,103.56 409.24,103.56 C411.69,103.56 413.23,102.3 413.23,98.8 L413.23,61 L420.51,61 L420.51,98.31 C420.51,106.15 416.59,110.63 409.03,110.63 C401.47,110.63 397.55,106.15 397.55,98.31 L397.55,61 Z" id="Guru" fill="#343642"></path>
        </g>
    </g>
</svg>